# xmcd
#
# Track frame offsets:
#	150
#	20780
#	36141
#	46462
#	55595
#	66396
#	82412
#	100084
#	115984
#	136771
#	150290
#	160544
#	173017
#
# Disc length: 2637 seconds
#
# Revision: 0
# Processed by: cddbd v1.5.1PL0 Copyright (c) Steve Scherf et al.
# Submitted via: EasyCDDAExtractor 8.1.0.1
#
DISCID=a20a4b0d
DTITLE=Keith B. Brown - Delta Soul
DYEAR=2005
DGENRE=Blues
TTITLE0=Death Letter
TTITLE1=Hard Time Killing Floor
TTITLE2=All I Need
TTITLE3=Didn't Come Today
TTITLE4=Niggers and Rednecks
TTITLE5=Bad Luck Child
TTITLE6=Cypress Grove
TTITLE7=Shetland Pony
TTITLE8=Callin' Me
TTITLE9=Easy Rider
TTITLE10=Who's To Blame
TTITLE11=Illinois Blues
TTITLE12=Me and the Devil
EXTD=
EXTT0=
EXTT1=
EXTT2=
EXTT3=
EXTT4=
EXTT5=
EXTT6=
EXTT7=
EXTT8=
EXTT9=
EXTT10=
EXTT11=
EXTT12=
PLAYORDER=
